<svg width="150" height="24" viewBox="0 0 150 24" fill="none" xmlns="http://www.w3.org/2000/svg">
<path d="M14.48 0.0479108L0 6.7017L3.6079 20.3264L6.35378 19.9918L5.59877 11.4251L6.50038 11.0265L8.0573 19.7838L12.7501 19.2121L11.9159 9.75657L12.8087 9.36234L14.521 18.9968L19.268 18.4178L18.3547 8.05311L19.2578 7.65453L21.1299 18.1909L25.8227 17.6192V2.86712L14.48 0.0479108ZM14.8201 20.7119L15.0591 22.0531L25.8227 23.8337V19.3707L14.826 20.7119H14.8201ZM36.0028 17.916V19.7533H38.2854C38.2856 20.1259 38.1886 20.4922 38.0039 20.8166C37.8108 21.1399 37.5249 21.3986 37.1829 21.56C36.774 21.7454 36.3276 21.835 35.8782 21.8218C35.3592 21.8361 34.8481 21.6941 34.4121 21.4145C33.9863 21.1212 33.6577 20.7091 33.468 20.2304C33.2315 19.6318 33.1183 18.9922 33.1352 18.3495C33.1179 17.7117 33.2337 17.0772 33.4753 16.486C33.6729 16.0148 34.0039 15.6106 34.4283 15.3222C34.8561 15.0466 35.3579 14.9056 35.8679 14.9178C36.1334 14.9155 36.3979 14.9503 36.6537 15.0211C36.8812 15.0858 37.0959 15.1886 37.2885 15.3252C37.4713 15.4559 37.6292 15.618 37.7547 15.8037C37.8859 16.0025 37.9848 16.2204 38.0479 16.4496H40.5797C40.5135 15.9224 40.341 15.4139 40.0725 14.9542C39.8053 14.5007 39.4547 14.101 39.0389 13.7759C38.6032 13.4379 38.1116 13.1775 37.5861 13.0064C37.0153 12.822 36.4183 12.7307 35.8181 12.7358C35.1158 12.73 34.419 12.8584 33.7656 13.114C33.1378 13.3621 32.5702 13.7394 32.1002 14.221C31.6084 14.73 31.2285 15.3349 30.9846 15.9972C30.706 16.7637 30.5704 17.5741 30.5843 18.3887C30.5843 19.5467 30.8062 20.5451 31.2499 21.384C31.6695 22.192 32.3156 22.8624 33.1103 23.3144C34.7433 24.1789 36.6926 24.2242 38.3645 23.4365C39.078 23.0774 39.672 22.5218 40.0754 21.8364C40.4908 21.1391 40.698 20.3051 40.697 19.3343V17.9145L36.0028 17.916ZM67.5268 23.8526V12.8783H75.1018V14.9091H70.0264V17.3472H74.1298V19.3779H70.0264V21.8218H75.1135V23.8526H67.5268ZM82.4554 16.0991C82.4329 15.7173 82.2433 15.3645 81.9364 15.1331C81.63 14.9018 81.2034 14.7869 80.6625 14.7869C80.35 14.7766 80.0384 14.826 79.7447 14.9324C79.5232 15.0126 79.3287 15.1526 79.1832 15.3368C79.0572 15.5051 78.9889 15.709 78.9883 15.9187C78.9814 16.0858 79.0215 16.2515 79.1041 16.3973C79.191 16.5422 79.3117 16.6644 79.4559 16.7537C79.6251 16.8625 79.8073 16.95 79.9983 17.0141C80.221 17.091 80.4482 17.1547 80.6786 17.2046L81.6506 17.4286C82.127 17.5292 82.5913 17.6794 83.036 17.8767C83.4216 18.0473 83.7778 18.277 84.0915 18.5575C84.3787 18.817 84.6075 19.1338 84.7629 19.487C84.9257 19.8683 85.0061 20.2791 84.999 20.693C85.0154 21.3195 84.834 21.9355 84.48 22.4546C84.1058 22.9702 83.5889 23.3669 82.992 23.5966C82.2478 23.8817 81.4541 24.0182 80.6566 23.9981C79.8472 24.0152 79.0421 23.8764 78.286 23.5893C77.6493 23.3439 77.1017 22.914 76.7144 22.3557C76.3401 21.8068 76.1446 21.1221 76.128 20.3017H78.5367C78.5431 20.9505 78.9552 21.5271 79.5703 21.7476C79.909 21.8754 80.2693 21.9376 80.6317 21.9309C80.9642 21.9381 81.2952 21.8844 81.608 21.7724C81.8551 21.6858 82.0743 21.5351 82.2428 21.336C82.3914 21.1507 82.4725 20.921 82.473 20.6843C82.4753 20.472 82.4015 20.2657 82.2648 20.1024C82.0973 19.9211 81.8895 19.7811 81.6579 19.6936C81.3308 19.5613 80.9929 19.4572 80.6478 19.3823L79.4647 19.0986C78.5216 18.8756 77.7773 18.5235 77.2319 18.0425C76.6866 17.5615 76.4159 16.9098 76.4198 16.0874C76.4025 15.4564 76.5941 14.8371 76.9651 14.3243C77.3536 13.8029 77.8768 13.3953 78.4795 13.1446C79.1746 12.8521 79.9238 12.7079 80.6786 12.7212C81.4299 12.7045 82.176 12.8489 82.8659 13.1446C83.4517 13.3975 83.9549 13.8076 84.3187 14.3287C84.6684 14.8508 84.8523 15.4649 84.8465 16.0918L82.4554 16.0991ZM65.7441 23.8526H63.2709V15.5099L63.0173 15.507L60.5192 23.8526H58.0475L55.6168 15.507L55.3016 15.5099V23.8526H52.8284V12.8783H57.0315L59.1543 20.2333H59.4109L61.5337 12.8783H65.7441V23.8526ZM48.9346 23.8526H51.6131L47.8996 12.8798H44.5058L40.7864 23.8526H43.4693L44.192 21.4465H48.2119L48.9346 23.8526ZM44.7667 19.5321L45.9718 15.5099H46.4263L47.6372 19.5321H44.7667ZM41.4022 0.14974H43.9017V11.124H41.4022V0.14974ZM55.7722 5.63686C55.7722 6.84135 55.542 7.85964 55.0817 8.69173C54.6541 9.49505 54.0034 10.1599 53.2066 10.6076C51.5432 11.4881 49.5469 11.4881 47.8835 10.6076C47.0866 10.1582 46.4359 9.49191 46.0084 8.68736C45.5481 7.84752 45.3179 6.82923 45.3179 5.6325C45.3179 4.43577 45.5481 3.41505 46.0084 2.57036C46.4352 1.76944 47.0837 1.10624 47.8776 0.658884C49.5416 -0.219628 51.5368 -0.219628 53.2008 0.658884C53.9975 1.10654 54.6482 1.7714 55.0758 2.57472C55.5362 3.41263 55.7663 4.43334 55.7663 5.63686M53.2228 5.63686C53.2418 4.99118 53.1306 4.34824 52.8958 3.74575C52.7101 3.27486 52.387 2.86966 51.9678 2.582C51.0934 2.04859 49.9909 2.04859 49.1164 2.582C48.6968 2.86988 48.3728 3.27492 48.1855 3.74575C47.7446 4.96854 47.7446 6.30519 48.1855 7.52797C48.3722 7.99916 48.6963 8.40436 49.1164 8.69173C49.9909 9.22514 51.0934 9.22514 51.9678 8.69173C52.3875 8.40458 52.7107 7.99922 52.8958 7.52797C53.1304 6.92543 53.2416 6.28253 53.2228 5.63686ZM36.1494 7.29813L37.4336 11.124H40.1766L38.7486 7.00282H36.8091L36.6933 6.64788C37.0627 6.5766 37.6946 6.46604 38.2546 6.08782C39.0508 5.55033 39.5303 4.65912 39.5374 3.70357C39.5542 3.05334 39.3887 2.41125 39.0594 1.84883C38.7377 1.30422 38.26 0.866756 37.6872 0.591968C37.0156 0.283351 36.2808 0.133946 35.541 0.155558H31.0798V11.124H33.5809V7.29813H36.1494ZM36.1025 5.02734C35.762 5.15156 35.4007 5.20983 35.0381 5.199H33.5809V2.1645H35.0337C35.3966 2.15413 35.7579 2.21545 36.0966 2.34488C36.3645 2.4506 36.5907 2.63939 36.7417 2.88312C36.8955 3.12882 36.9721 3.41447 36.9616 3.70357C36.9735 3.9883 36.8978 4.2699 36.7446 4.51092C36.5929 4.74785 36.3675 4.92917 36.1025 5.02734ZM56.0082 0.14974V2.18632H60.3037L60.421 2.54272C60.0574 2.61254 59.4431 2.72019 58.8919 3.08096V11.1269H61.3651V2.1805H64.2415V0.143921L56.0082 0.14974Z" fill="white"/>
<path d="M149.782 2.01C149.741 2.02901 149.706 2.05802 149.68 2.0942C146.155 6.38528 142.629 10.6764 139.107 14.9675C138.996 15.0618 139.081 15.2596 139.231 15.2363C141.772 15.2393 144.311 15.2363 146.852 15.2373C146.962 15.2428 147.071 15.2227 147.171 15.1786C147.271 15.1344 147.359 15.0676 147.427 14.9837C148.233 14.0027 149.042 13.0218 149.848 12.0388C149.958 11.8965 150.012 11.7197 149.998 11.5417C149.996 8.42025 149.998 5.29983 149.995 2.1784C150.011 2.06681 149.891 1.97043 149.782 2.01ZM125.079 2.0242C124.999 2.06275 125.002 2.15811 125 2.23216C125.002 5.35055 125.001 8.47097 125.001 11.5904C124.994 11.7614 125.053 11.9289 125.166 12.0601L133.124 21.748C133.249 21.9022 133.445 22.0016 133.65 21.9985C136.207 21.9985 138.765 22.0016 141.322 21.9985C141.47 22.0188 141.553 21.822 141.443 21.7297C136.104 15.2221 130.755 8.71951 125.416 2.21086C125.332 2.1155 125.234 1.93493 125.08 2.0242H125.079Z" fill="#FF4655"/>
</svg>
